<svg width="62" height="56" viewBox="0 0 62 56" fill="none" xmlns="http://www.w3.org/2000/svg">
<path d="M43.1875 7.5H18.8125C18.3152 7.5 17.8383 7.30246 17.4867 6.95083C17.135 6.59919 16.9375 6.12228 16.9375 5.625C16.9375 5.12772 17.135 4.65081 17.4867 4.29917C17.8383 3.94754 18.3152 3.75 18.8125 3.75H43.1875C43.6848 3.75 44.1617 3.94754 44.5133 4.29917C44.865 4.65081 45.0625 5.12772 45.0625 5.625C45.0625 6.12228 44.865 6.59919 44.5133 6.95083C44.1617 7.30246 43.6848 7.5 43.1875 7.5ZM43.1875 26.25H18.8125C18.3152 26.25 17.8383 26.0525 17.4867 25.7008C17.135 25.3492 16.9375 24.8723 16.9375 24.375C16.9375 23.8777 17.135 23.4008 17.4867 23.0492C17.8383 22.6975 18.3152 22.5 18.8125 22.5H43.1875C43.6848 22.5 44.1617 22.6975 44.5133 23.0492C44.865 23.4008 45.0625 23.8777 45.0625 24.375C45.0625 24.8723 44.865 25.3492 44.5133 25.7008C44.1617 26.0525 43.6848 26.25 43.1875 26.25ZM43.1875 16.875H18.8125C18.3152 16.875 17.8383 16.6775 17.4867 16.3258C17.135 15.9742 16.9375 15.4973 16.9375 15C16.9375 14.5027 17.135 14.0258 17.4867 13.6742C17.8383 13.3225 18.3152 13.125 18.8125 13.125H43.1875C43.6848 13.125 44.1617 13.3225 44.5133 13.6742C44.865 14.0258 45.0625 14.5027 45.0625 15C45.0625 15.4973 44.865 15.9742 44.5133 16.3258C44.1617 16.6775 43.6848 16.875 43.1875 16.875Z" fill="#585858"/>
<path d="M13.3813 43.8182H15.2456L18.4871 51.733H18.6064L21.8479 43.8182H23.7123V54H22.2506V46.6321H22.1562L19.1533 53.9851H17.9403L14.9374 46.6271H14.843V54H13.3813V43.8182ZM29.1176 54.1541C28.3653 54.1541 27.7173 53.9934 27.1737 53.6719C26.6335 53.3471 26.2159 52.8913 25.9209 52.3047C25.6292 51.7147 25.4834 51.0237 25.4834 50.2315C25.4834 49.4493 25.6292 48.7599 25.9209 48.1634C26.2159 47.5668 26.6269 47.1011 27.1539 46.7663C27.6842 46.4316 28.3039 46.2642 29.0132 46.2642C29.4441 46.2642 29.8617 46.3355 30.2661 46.478C30.6704 46.6205 31.0334 46.8442 31.3548 47.1491C31.6763 47.4541 31.9299 47.8501 32.1155 48.3374C32.3011 48.8213 32.3939 49.4096 32.3939 50.1023V50.6293H26.3236V49.5156H30.9372C30.9372 49.1245 30.8577 48.7782 30.6986 48.4766C30.5395 48.1716 30.3158 47.9313 30.0274 47.7557C29.7424 47.58 29.4076 47.4922 29.0232 47.4922C28.6056 47.4922 28.241 47.5949 27.9294 47.8004C27.6212 48.0026 27.3825 48.2678 27.2135 48.5959C27.0478 48.9207 26.9649 49.2737 26.9649 49.6548V50.5249C26.9649 51.0353 27.0544 51.4695 27.2334 51.8274C27.4157 52.1854 27.6692 52.4588 27.9941 52.6477C28.3189 52.8333 28.6984 52.9261 29.1325 52.9261C29.4143 52.9261 29.6711 52.8864 29.9031 52.8068C30.1352 52.724 30.3357 52.6013 30.5047 52.4389C30.6737 52.2765 30.803 52.076 30.8925 51.8374L32.2994 52.0909C32.1868 52.5052 31.9846 52.8681 31.6929 53.1797C31.4046 53.4879 31.0416 53.7282 30.6041 53.9006C30.17 54.0696 29.6744 54.1541 29.1176 54.1541ZM35.5297 49.4659V54H34.0432V46.3636H35.4701V47.6065H35.5645C35.7402 47.2022 36.0153 46.8774 36.3898 46.6321C36.7677 46.3868 37.2433 46.2642 37.8167 46.2642C38.337 46.2642 38.7928 46.3736 39.1839 46.5923C39.575 46.8078 39.8782 47.1293 40.0937 47.5568C40.3091 47.9844 40.4168 48.513 40.4168 49.1428V54H38.9303V49.3217C38.9303 48.7682 38.7861 48.3357 38.4978 48.0241C38.2094 47.7093 37.8134 47.5518 37.3096 47.5518C36.9649 47.5518 36.6583 47.6264 36.3898 47.7756C36.1247 47.9247 35.9142 48.1435 35.7584 48.4318C35.606 48.7169 35.5297 49.0616 35.5297 49.4659ZM47.2478 50.8331V46.3636H48.7393V54H47.2776V52.6776H47.1981C47.0224 53.0852 46.7407 53.425 46.3529 53.6967C45.9684 53.9652 45.4895 54.0994 44.9161 54.0994C44.4256 54.0994 43.9914 53.9917 43.6135 53.7763C43.239 53.5575 42.944 53.2344 42.7286 52.8068C42.5165 52.3793 42.4104 51.8506 42.4104 51.2209V46.3636H43.8969V51.0419C43.8969 51.5623 44.0411 51.9766 44.3295 52.2848C44.6178 52.593 44.9923 52.7472 45.453 52.7472C45.7314 52.7472 46.0082 52.6776 46.2833 52.5384C46.5617 52.3991 46.7921 52.1887 46.9743 51.907C47.1599 51.6252 47.2511 51.2673 47.2478 50.8331Z" fill="#4A4C56"/>
</svg>
